# Cartoon Character Model - More Detailed
# This is a simple friendly character

# Head vertices
v -0.15 0.6 0.15
v 0.15 0.6 0.15
v 0.15 1.0 0.15
v -0.15 1.0 0.15
v -0.15 0.6 -0.15
v 0.15 0.6 -0.15
v 0.15 1.0 -0.15
v -0.15 1.0 -0.15

# Eyes
v -0.05 0.85 0.16
v 0.05 0.85 0.16
v 0.05 0.75 0.16
v -0.05 0.75 0.16

# Body vertices
v -0.25 0.2 0.25
v 0.25 0.2 0.25
v 0.25 0.6 0.25
v -0.25 0.6 0.25
v -0.25 0.2 -0.25
v 0.25 0.2 -0.25
v 0.25 0.6 -0.25
v -0.25 0.6 -0.25

# Left Arm
v -0.45 0.35 0.15
v -0.25 0.35 0.15
v -0.25 0.65 0.15
v -0.45 0.65 0.15
v -0.45 0.35 -0.15
v -0.25 0.35 -0.15
v -0.25 0.65 -0.15
v -0.45 0.65 -0.15

# Right Arm  
v 0.25 0.35 0.15
v 0.45 0.35 0.15
v 0.45 0.65 0.15
v 0.25 0.65 0.15
v 0.25 0.35 -0.15
v 0.45 0.35 -0.15
v 0.45 0.65 -0.15
v 0.25 0.65 -0.15

# Left Leg
v -0.2 -0.3 0.15
v 0.0 -0.3 0.15
v 0.0 0.2 0.15
v -0.2 0.2 0.15
v -0.2 -0.3 -0.15
v 0.0 -0.3 -0.15
v 0.0 0.2 -0.15
v -0.2 0.2 -0.15

# Right Leg
v 0.0 -0.3 0.15
v 0.2 -0.3 0.15
v 0.2 0.2 0.15
v 0.0 0.2 0.15
v 0.0 -0.3 -0.15
v 0.2 -0.3 -0.15
v 0.2 0.2 -0.15
v 0.0 0.2 -0.15

# Texture coordinates
vt 0.0 0.0
vt 1.0 0.0
vt 1.0 1.0
vt 0.0 1.0

# Normals
vn 0.0 0.0 1.0
vn 0.0 0.0 -1.0
vn -1.0 0.0 0.0
vn 1.0 0.0 0.0
vn 0.0 1.0 0.0
vn 0.0 -1.0 0.0

# Head faces
f 1/1/1 2/2/1 3/3/1
f 3/3/1 4/4/1 1/1/1
f 5/1/2 8/4/2 7/3/2
f 7/3/2 6/2/2 5/1/2

# Body faces  
f 17/1/1 18/2/1 19/3/1
f 19/3/1 20/4/1 17/1/1
f 21/1/2 24/4/2 23/3/2
f 23/3/2 22/2/2 21/1/2

# Left arm faces
f 25/1/1 26/2/1 27/3/1
f 27/3/1 28/4/1 25/1/1
f 29/1/2 32/4/2 31/3/2
f 31/3/2 30/2/2 29/1/2

# Right arm faces
f 33/1/1 34/2/1 35/3/1
f 35/3/1 36/4/1 33/1/1
f 37/1/2 40/4/2 39/3/2
f 39/3/2 38/2/2 37/1/2

# Left leg faces
f 41/1/1 42/2/1 43/3/1
f 43/3/1 44/4/1 41/1/1
f 45/1/2 48/4/2 47/3/2
f 47/3/2 46/2/2 45/1/2

# Right leg faces
f 49/1/1 50/2/1 51/3/1
f 51/3/1 52/4/1 49/1/1
f 53/1/2 56/4/2 55/3/2
f 55/3/2 54/2/2 53/1/2

