# Simple Character Model
# Head
v -0.2 0.5 0.2
v 0.2 0.5 0.2
v 0.2 1.0 0.2
v -0.2 1.0 0.2
v -0.2 0.5 -0.2
v 0.2 0.5 -0.2
v 0.2 1.0 -0.2
v -0.2 1.0 -0.2

# Body
v -0.3 0.2 0.3
v 0.3 0.2 0.3
v 0.3 0.7 0.3
v -0.3 0.7 0.3
v -0.3 0.2 -0.3
v 0.3 0.2 -0.3
v 0.3 0.7 -0.3
v -0.3 0.7 -0.3

# Left Arm
v -0.5 0.3 0.1
v -0.3 0.3 0.1
v -0.3 0.7 0.1
v -0.5 0.7 0.1
v -0.5 0.3 -0.1
v -0.3 0.3 -0.1
v -0.3 0.7 -0.1
v -0.5 0.7 -0.1

# Right Arm
v 0.3 0.3 0.1
v 0.5 0.3 0.1
v 0.5 0.7 0.1
v 0.3 0.7 0.1
v 0.3 0.3 -0.1
v 0.5 0.3 -0.1
v 0.5 0.7 -0.1
v 0.3 0.7 -0.1

# Left Leg
v -0.15 -0.3 0.1
v 0.05 -0.3 0.1
v 0.05 0.2 0.1
v -0.15 0.2 0.1
v -0.15 -0.3 -0.1
v 0.05 -0.3 -0.1
v 0.05 0.2 -0.1
v -0.15 0.2 -0.1

# Right Leg
v -0.05 -0.3 0.1
v 0.15 -0.3 0.1
v 0.15 0.2 0.1
v -0.05 0.2 0.1
v -0.05 -0.3 -0.1
v 0.15 -0.3 -0.1
v 0.15 0.2 -0.1
v -0.05 0.2 -0.1

# Texture coordinates
vt 0.0 0.0
vt 1.0 0.0
vt 1.0 1.0
vt 0.0 1.0

# Normals (simplified)
vn 0.0 0.0 1.0
vn 0.0 0.0 -1.0
vn -1.0 0.0 0.0
vn 1.0 0.0 0.0
vn 0.0 1.0 0.0
vn 0.0 -1.0 0.0

# Faces - Head
f 1/1/1 2/2/1 3/3/1
f 3/3/1 4/4/1 1/1/1
f 5/1/2 8/4/2 7/3/2
f 7/3/2 6/2/2 5/1/2
f 1/1/3 4/4/3 8/3/3
f 8/3/3 5/2/3 1/1/3
f 2/1/4 6/4/4 7/3/4
f 7/3/4 3/2/4 2/1/4
f 4/1/5 3/2/5 7/3/5
f 7/3/5 8/4/5 4/1/5
f 1/1/6 5/4/6 6/3/6
f 6/3/6 2/2/6 1/1/6

# Faces - Body
f 9/1/1 10/2/1 11/3/1
f 11/3/1 12/4/1 9/1/1
f 13/1/2 16/4/2 15/3/2
f 15/3/2 14/2/2 13/1/2
f 9/1/3 12/4/3 16/3/3
f 16/3/3 13/2/3 9/1/3
f 10/1/4 14/4/4 15/3/4
f 15/3/4 11/2/4 10/1/4
f 12/1/5 11/2/5 15/3/5
f 15/3/5 16/4/5 12/1/5
f 9/1/6 13/4/6 14/3/6
f 14/3/6 10/2/6 9/1/6

